<?xml version="1.0" encoding="utf-8"?>
<!-- Generator: Adobe Illustrator 23.0.4, SVG Export Plug-In . SVG Version: 6.00 Build 0)  -->
<svg version="1.1" id="Layer_1" xmlns="http://www.w3.org/2000/svg" xmlns:xlink="http://www.w3.org/1999/xlink" x="0px" y="0px"
	 viewBox="0 0 525 103" style="enable-background:new 0 0 525 103;" xml:space="preserve">
<style type="text/css">
	.st0{fill:#FFFFFF;}
	.st1{fill:#1A1918;}
	.st2{fill:#A82128;}
	.st3{fill:#1A1918;stroke:#FFFFFF;}
	.st4{fill:#CF112D;}
	.st5{fill:#1A1919;}
	.st6{filter:url(#Adobe_OpacityMaskFilter);}
	.st7{mask:url(#mask-2_2_);fill:url(#Rectangle_1_);}
	.st8{fill:none;}
</style>
<title>Group 10</title>
<desc>Created with Sketch.</desc>
<g id="Page-1">
	<g id="Group-10" transform="translate(1.000000, 1.000000)">
		<g id="CU360">
			<g id="Group-6">
				<g id="Group-5">
					<g id="Icons-_x2F_-CU-Shield">
						<path id="Fill-70" class="st0" d="M40.3,100.7l4.2-1.4C56.1,94.1,63.9,88.7,71,79.9c6.7-8.5,9.2-17.2,9.6-28.6
							c0,0-0.2-36.8-0.2-45.7c-4.1-2.3-28.8-5.4-40-5.4"/>
						<path id="Fill-45" class="st0" d="M40.3,0.3C28.3,0.4,4.1,4,0.2,5.4c-0.1,17.5-0.2,46-0.2,46C0.4,62.2,3,71.4,9.6,79.9
							c7,8.8,15.4,14.3,26.5,19.4c0.1,0,4.2,1.4,4.2,1.4"/>
						<path id="Fill-46" d="M66.9,51.7l-1-0.3l-0.2-1L64,49.7c-4.7-1.6-9.6-2.9-14.6-3.3c-3.2-0.3-6.5-0.1-9,1.5
							c-2.5-1.5-5.7-1.8-9-1.5c-5,0.5-9.9,1.7-14.6,3.3L15,50.3l-0.2,1l-1,0.3L8.1,74.5c3.2-0.6,9.8-1.5,13.4-1.9
							c4.5-0.5,8.4-0.7,13.5-0.5c0,0.2-0.1,0.4,0,0.6c0.6,0.5,1.8,0.5,2.7,0.6c1,0,1.4,0.1,2.4,0.1c1,0,1.4,0,2.4-0.1
							c1-0.1,2.2,0,2.8-0.6c0.1-0.2,0.1-0.4,0-0.6c5.1-0.2,9,0,13.5,0.5c3.7,0.4,10.2,1.3,13.4,1.9L66.9,51.7L66.9,51.7z M39.7,68.8
							c-2.6-1.4-5.9-1.6-9.1-1.4c-6.9,0.4-13,1.9-19.5,4L16,50.8c5-1.8,10.2-3.3,15.6-3.7c3.5-0.2,6.6,0.2,8.3,1.4L39.7,68.8
							L39.7,68.8z M50.1,67.4c-3.2-0.2-6.5,0-9.2,1.4l-0.1-20.3c1.8-1.2,4.8-1.6,8.3-1.4c5.4,0.4,10.6,1.9,15.5,3.7l4.8,20.6
							C63.1,69.3,57,67.9,50.1,67.4L50.1,67.4z"/>
						<path id="Fill-47" class="st1" d="M41.8,0.2l5.6,10.9l0,0c0,0,0.1,0.2,0.3,0.5c0.2-0.1,0.4-0.1,0.6-0.2
							c0.3-0.1,9.4-5.2,9.4-5.2s-4.1,19.2-4.5,21.1c1.8-1.8,9.1-9.2,9.1-9.2s3.1,5.7,3.8,7c0.1,0,1-0.2,1-0.2l-0.5,0.1l11.2-3
							l-3.6,12.1c0,0,0,0.1-0.1,0.1l0,0c0,0,0,0.1,0,0.1c0,0,0,0,0,0s-0.3,0.9-0.4,1.2c-0.1,0.2-0.2,0.5-0.2,0.6
							c0.7,0.3,5.7,2.8,5.7,2.8s-6.5,5.6-11.9,10.2c0.1,0.2,0.1,0.5,0.1,0.6c0.1,0,1,0.3,1,0.3l6,24.4c4.1-7,6-14.8,6-23.2
							c0,0,0-34-0.1-46C69,2.2,54,0.6,41.8,0.2"/>
						<path id="Fill-48" class="st1" d="M40.3,100.7c1.1-0.4,2.6-0.7,3.6-1.2C54.4,95.3,63.7,89,71,79.9c0.9-1.1,1.7-2.2,2.4-3.4
							l-1.2-0.2c-3.3-0.6-9.9-1.5-13.3-1.8c-0.4,0-0.7-0.1-1.1-0.1c-0.1,0-0.1,0-0.2,0c-0.4,0-0.7-0.1-1.1-0.1h0
							c-0.4,0-0.7-0.1-1.1-0.1c0,0-0.1,0-0.1,0c-0.4,0-0.7-0.1-1.1-0.1c-2.4-0.1-4.7-0.2-7.2-0.1c0,0-0.1,0.1-0.1,0.1
							c-1,0.9-2.4,1-3.5,1.1l-0.6,0l-0.6,0l-2,0l-2.5-0.1l-0.6,0c-1-0.1-2.4-0.1-3.5-1.1c0,0,0,0-0.1-0.1c-2.2,0-4.1,0-6.1,0.1
							c-0.5,0-0.9,0-1.4,0.1c0,0,0,0,0,0c-0.2,0-0.5,0-0.7,0c0,0,0,0,0,0c-0.2,0-0.4,0-0.7,0.1c0,0-0.1,0-0.1,0
							c-0.2,0-0.4,0-0.6,0.1c-0.1,0-0.1,0-0.2,0c-0.2,0-0.4,0-0.5,0c-0.1,0-0.2,0-0.3,0c-0.1,0-0.3,0-0.4,0c-0.3,0-0.5,0.1-0.8,0.1
							c-3.4,0.3-10,1.2-13.3,1.8l-1.2,0.2c0.7,1.1,1.5,2.3,2.4,3.4c7.3,9.1,16.6,15.4,27,19.6C37.8,99.9,39.3,100.3,40.3,100.7"/>
						<path id="Fill-49" class="st1" d="M38.8,0.2c-12.2-0.1-27.2,2-38.6,5.2c-0.1,12-0.2,46-0.2,46C0,59.8,2,67.6,6,74.6l6.1-24.4
							c0,0,0.9-0.3,1-0.3c0-0.1,0.1-0.3,0.1-0.5c-5.4-4.6-12-10.2-12-10.2s5.1-2.5,5.7-2.8c0-0.1-0.2-0.5-0.2-0.7
							c-0.1-0.3-0.2-0.7-0.3-0.9c0,0,0,0,0,0L2.7,22.1l11.2,3L13.4,25c0.1,0,0.9,0.1,1,0.2c0.7-1.3,3.8-7,3.8-7s7.3,7.4,9.1,9.2
							c-0.4-1.9-4.5-21.1-4.5-21.1s9.2,5,9.4,5.2c0.2,0.1,0.4,0.1,0.6,0.2c0.2-0.4,0.3-0.5,0.3-0.5l0,0l5-9.7L38.8,0.2"/>
						<path id="Fill-50" class="st2" d="M9.4,36.7c0,0.6-0.6,1.2-0.9,1.4l-3.1,1.5l10,8.5l0.7-0.2l0,0c5.7-1.9,10.5-3,15.1-3.4
							c3.8-0.3,6.8,0.1,9.2,1.2c2.4-1.1,5.4-1.5,9.2-1.2c4.6,0.4,9.4,1.5,15.1,3.4l0,0l0.6,0.2l9.9-8.5l-3.1-1.5
							c-0.3-0.2-0.9-0.9-0.9-1.4c0-0.2,0-0.2,0-0.1c0,0,0,0,0,0c0.1-0.3,0-0.3,0.3-1.2c0,0,0.6-1.7,0.6-1.8l2.4-8.1l-7.1,1.9
							c-0.4,0-0.7,0.2-1.1,0.2c-0.7,0.1-1.2,0.2-1.6-0.2l-2.8-5.2l-8.1,8.2l-0.6,0.6c-1.4,1-3.3-0.1-2.4-2.9l3.6-17.1l-4.9,2.7
							c-0.7,0.3-1.2,0.5-2.2,0.8c-0.3,0.1-0.6-0.1-0.8-0.3c-0.4-0.6-0.9-1.5-1.1-1.9l-5-9.6l-5,9.6c-0.2,0.4-0.8,1.4-1.1,1.9
							c-0.2,0.2-0.5,0.4-0.8,0.3c-0.9-0.3-1.5-0.5-2.2-0.8l-4.9-2.7L29.9,28c0.8,2.8-1.1,3.9-2.4,2.9l-0.6-0.6l-8.1-8.2l-2.8,5.2
							c-0.4,0.4-0.9,0.3-1.6,0.2c-0.4-0.1-0.7-0.2-1.1-0.2l-7.1-1.9l2.4,8.1c0,0,0.6,1.8,0.6,1.8c0.3,0.9,0.3,0.8,0.3,1.2
							c0,0,0,0,0,0C9.5,36.5,9.5,36.5,9.4,36.7L9.4,36.7z M46.4,14C46.2,13.8,46.1,13.6,46.4,14L46.4,14z M34.3,14
							C34.5,13.6,34.5,13.8,34.3,14L34.3,14z"/>
						<path id="Fill-51" d="M37,53.6c-2.8-1.1-6.1-0.8-9.1-0.3c-3.5,0.6-5.2,1-9,2.3l0.2-0.9c0,0,4.9-1.8,11.5-2.6
							c0,0,3.8-0.5,6.4,0.7V53.6"/>
						<path id="Fill-52" d="M37,57.7c-2.8-1.1-6.1-0.8-9.1-0.3c-3.5,0.6-6,1-10,2.2l0.2-0.9c0,0,5.9-1.8,12.5-2.5
							c0,0,3.8-0.5,6.4,0.7V57.7"/>
						<path id="Fill-53" d="M37,61.8c-2.8-1.1-6.1-0.8-9.1-0.3c-3.5,0.6-7.1,1.5-11.1,2.8l0.2-0.9c0,0,7-2.4,13.6-3.1
							c0,0,3.8-0.5,6.4,0.7V61.8"/>
						<path id="Fill-54" d="M43.6,53.6c2.8-1.1,6.1-0.8,9.1-0.3c3.5,0.6,5.2,1,9,2.3l-0.2-0.9c0,0-4.9-1.8-11.5-2.6
							c0,0-3.8-0.5-6.4,0.7V53.6"/>
						<path id="Fill-55" d="M43.6,57.7c2.8-1.1,6.1-0.8,9.1-0.3c3.5,0.6,6,1,10,2.2l-0.2-0.9c0,0-5.9-1.8-12.5-2.5
							c0,0-3.8-0.5-6.4,0.7V57.7"/>
						<path id="Fill-56" d="M43.6,61.8c2.8-1.1,6.1-0.8,9.1-0.3c3.5,0.6,7.1,1.5,11.1,2.8l-0.2-0.9c0,0-7-2.4-13.6-3.1
							c0,0-3.8-0.5-6.4,0.7V61.8"/>
						<path id="Fill-57" class="st0" d="M40.3,100.7l4.2-1.4C56.1,94.1,63.9,88.7,71,79.9c6.7-8.5,9.2-17.2,9.6-28.6
							c0,0-0.2-36.8-0.2-45.7c-4.1-2.3-28.8-5.4-40-5.4"/>
						<path id="Fill-58" class="st0" d="M40.3,0.3C28.3,0.4,4.1,4,0.2,5.4c-0.1,17.5-0.2,46-0.2,46C0.4,62.2,3,71.4,9.6,79.9
							c7,8.8,15.4,14.3,26.5,19.4c0.1,0,4.2,1.4,4.2,1.4"/>
						<path id="Fill-59" d="M66.9,51.7l-1-0.3l-0.2-1L64,49.7c-4.7-1.6-9.6-2.9-14.6-3.3c-3.2-0.3-6.5-0.1-9,1.5
							c-2.5-1.5-5.7-1.8-9-1.5c-5,0.5-9.9,1.7-14.6,3.3L15,50.3l-0.2,1l-1,0.3L8.1,74.5c3.2-0.6,9.8-1.5,13.4-1.9
							c4.5-0.5,8.4-0.7,13.5-0.5c0,0.2-0.1,0.4,0,0.6c0.6,0.5,1.8,0.5,2.7,0.6c1,0,1.4,0.1,2.4,0.1c1,0,1.4,0,2.4-0.1
							c1-0.1,2.2,0,2.8-0.6c0.1-0.2,0.1-0.4,0-0.6c5.1-0.2,9,0,13.5,0.5c3.7,0.4,10.2,1.3,13.4,1.9L66.9,51.7L66.9,51.7z M39.7,68.8
							c-2.6-1.4-5.9-1.6-9.1-1.4c-6.9,0.4-13,1.9-19.5,4L16,50.8c5-1.8,10.2-3.3,15.6-3.7c3.5-0.2,6.6,0.2,8.3,1.4L39.7,68.8
							L39.7,68.8z M50.1,67.4c-3.2-0.2-6.5,0-9.2,1.4l-0.1-20.3c1.8-1.2,4.8-1.6,8.3-1.4c5.4,0.4,10.6,1.9,15.5,3.7l4.8,20.6
							C63.1,69.3,57,67.9,50.1,67.4L50.1,67.4z"/>
						<path id="Fill-60" class="st3" d="M41.8,0.2l5.6,10.9l0,0c0,0,0.1,0.2,0.3,0.5c0.2-0.1,0.4-0.1,0.6-0.2
							c0.3-0.1,9.4-5.2,9.4-5.2s-4.1,19.2-4.5,21.1c1.8-1.8,9.1-9.2,9.1-9.2s3.1,5.7,3.8,7c0.1,0,1-0.2,1-0.2l-0.5,0.1l11.2-3
							l-3.6,12.1c0,0,0,0.1-0.1,0.1l0,0c0,0,0,0.1,0,0.1c0,0,0,0,0,0s-0.3,0.9-0.4,1.2c-0.1,0.2-0.2,0.5-0.2,0.6
							c0.7,0.3,5.7,2.8,5.7,2.8s-6.5,5.6-11.9,10.2c0.1,0.2,0.1,0.5,0.1,0.6c0.1,0,1,0.3,1,0.3l6,24.4c4.1-7,6-14.8,6-23.2
							c0,0,0-34-0.1-46C69,2.2,54,0.6,41.8,0.2"/>
						<path id="Fill-61" class="st3" d="M40.3,100.7c1.1-0.4,2.6-0.7,3.6-1.2C54.4,95.3,63.7,89,71,79.9c0.9-1.1,1.7-2.2,2.4-3.4
							l-1.2-0.2c-3.3-0.6-9.9-1.5-13.3-1.8c-0.4,0-0.7-0.1-1.1-0.1c-0.1,0-0.1,0-0.2,0c-0.4,0-0.7-0.1-1.1-0.1h0
							c-0.4,0-0.7-0.1-1.1-0.1c0,0-0.1,0-0.1,0c-0.4,0-0.7-0.1-1.1-0.1c-2.4-0.1-4.7-0.2-7.2-0.1c0,0-0.1,0.1-0.1,0.1
							c-1,0.9-2.4,1-3.5,1.1l-0.6,0l-0.6,0l-2,0l-2.5-0.1l-0.6,0c-1-0.1-2.4-0.1-3.5-1.1c0,0,0,0-0.1-0.1c-2.2,0-4.1,0-6.1,0.1
							c-0.5,0-0.9,0-1.4,0.1c0,0,0,0,0,0c-0.2,0-0.5,0-0.7,0c0,0,0,0,0,0c-0.2,0-0.4,0-0.7,0.1c0,0-0.1,0-0.1,0
							c-0.2,0-0.4,0-0.6,0.1c-0.1,0-0.1,0-0.2,0c-0.2,0-0.4,0-0.5,0c-0.1,0-0.2,0-0.3,0c-0.1,0-0.3,0-0.4,0c-0.3,0-0.5,0.1-0.8,0.1
							c-3.4,0.3-10,1.2-13.3,1.8l-1.2,0.2c0.7,1.1,1.5,2.3,2.4,3.4c7.3,9.1,16.6,15.4,27,19.6C37.8,99.9,39.3,100.3,40.3,100.7"/>
						<path id="Fill-62" class="st3" d="M38.8,0.2c-12.2-0.1-27.2,2-38.6,5.2c-0.1,12-0.2,46-0.2,46C0,59.8,2,67.6,6,74.6l6.1-24.4
							c0,0,0.9-0.3,1-0.3c0-0.1,0.1-0.3,0.1-0.5c-5.4-4.6-12-10.2-12-10.2s5.1-2.5,5.7-2.8c0-0.1-0.2-0.5-0.2-0.7
							c-0.1-0.3-0.2-0.7-0.3-0.9c0,0,0,0,0,0L2.7,22.1l11.2,3L13.4,25c0.1,0,0.9,0.1,1,0.2c0.7-1.3,3.8-7,3.8-7s7.3,7.4,9.1,9.2
							c-0.4-1.9-4.5-21.1-4.5-21.1s9.2,5,9.4,5.2c0.2,0.1,0.4,0.1,0.6,0.2c0.2-0.4,0.3-0.5,0.3-0.5l0,0l5-9.7L38.8,0.2"/>
						<path id="Fill-63" class="st4" d="M9.4,36.7c0,0.6-0.6,1.2-0.9,1.4l-3.1,1.5l10,8.5l0.7-0.2l0,0c5.7-1.9,10.5-3,15.1-3.4
							c3.8-0.3,6.8,0.1,9.2,1.2c2.4-1.1,5.4-1.5,9.2-1.2c4.6,0.4,9.4,1.5,15.1,3.4l0,0l0.6,0.2l9.9-8.5l-3.1-1.5
							c-0.3-0.2-0.9-0.9-0.9-1.4c0-0.2,0-0.2,0-0.1c0,0,0,0,0,0c0.1-0.3,0-0.3,0.3-1.2c0,0,0.6-1.7,0.6-1.8l2.4-8.1l-7.1,1.9
							c-0.4,0-0.7,0.2-1.1,0.2c-0.7,0.1-1.2,0.2-1.6-0.2l-2.8-5.2l-8.1,8.2l-0.6,0.6c-1.4,1-3.3-0.1-2.4-2.9l3.6-17.1l-4.9,2.7
							c-0.7,0.3-1.2,0.5-2.2,0.8c-0.3,0.1-0.6-0.1-0.8-0.3c-0.4-0.6-0.9-1.5-1.1-1.9l-5-9.6l-5,9.6c-0.2,0.4-0.8,1.4-1.1,1.9
							c-0.2,0.2-0.5,0.4-0.8,0.3c-0.9-0.3-1.5-0.5-2.2-0.8l-4.9-2.7L29.9,28c0.8,2.8-1.1,3.9-2.4,2.9l-0.6-0.6l-8.1-8.2l-2.8,5.2
							c-0.4,0.4-0.9,0.3-1.6,0.2c-0.4-0.1-0.7-0.2-1.1-0.2l-7.1-1.9l2.4,8.1c0,0,0.6,1.8,0.6,1.8c0.3,0.9,0.3,0.8,0.3,1.2
							c0,0,0,0,0,0C9.5,36.5,9.5,36.5,9.4,36.7L9.4,36.7z M46.4,14C46.2,13.8,46.1,13.6,46.4,14L46.4,14z M34.3,14
							C34.5,13.6,34.5,13.8,34.3,14L34.3,14z"/>
						<path id="Fill-64" d="M37,53.6c-2.8-1.1-6.1-0.8-9.1-0.3c-3.5,0.6-5.2,1-9,2.3l0.2-0.9c0,0,4.9-1.8,11.5-2.6
							c0,0,3.8-0.5,6.4,0.7V53.6"/>
						<path id="Fill-65" d="M37,57.7c-2.8-1.1-6.1-0.8-9.1-0.3c-3.5,0.6-6,1-10,2.2l0.2-0.9c0,0,5.9-1.8,12.5-2.5
							c0,0,3.8-0.5,6.4,0.7V57.7"/>
						<path id="Fill-66" d="M37,61.8c-2.8-1.1-6.1-0.8-9.1-0.3c-3.5,0.6-7.1,1.5-11.1,2.8l0.2-0.9c0,0,7-2.4,13.6-3.1
							c0,0,3.8-0.5,6.4,0.7V61.8"/>
						<path id="Fill-67" d="M43.6,53.6c2.8-1.1,6.1-0.8,9.1-0.3c3.5,0.6,5.2,1,9,2.3l-0.2-0.9c0,0-4.9-1.8-11.5-2.6
							c0,0-3.8-0.5-6.4,0.7V53.6"/>
						<path id="Fill-68" d="M43.6,57.7c2.8-1.1,6.1-0.8,9.1-0.3c3.5,0.6,6,1,10,2.2l-0.2-0.9c0,0-5.9-1.8-12.5-2.5
							c0,0-3.8-0.5-6.4,0.7V57.7"/>
						<path id="Fill-69" d="M43.6,61.8c2.8-1.1,6.1-0.8,9.1-0.3c3.5,0.6,7.1,1.5,11.1,2.8l-0.2-0.9c0,0-7-2.4-13.6-3.1
							c0,0-3.8-0.5-6.4,0.7V61.8"/>
					</g>
					<g id="Group-4" transform="translate(94.000000, 17.000000)">
						<path id="Carleton" class="st5" d="M21.4,62c8.4,0,14.2-3.3,19.3-8.4l-3.9-4.5c-4.3,4.2-8.8,6.8-15.1,6.8
							c-11.2,0-19.8-10.2-19.8-25.1v-0.3c0-14.7,8.6-25,19.8-25c6.2,0,10.8,2.7,14.6,6.4l4-5c-4.8-4.4-10.2-7.5-18.5-7.5
							C6.6-0.7-4.9,12-4.9,30.5V31C-4.9,49.5,6.3,62,21.4,62z M59.9,62c-7.6,0-14.5-5.1-14.5-14.1v-0.3C45.3,38.3,52,33,62.1,33
							c4.8,0,8.3,0.8,11.7,1.8v-2.7c0-7.3-4.3-11.2-11.6-11.2c-4.5,0-8.4,1.4-11.6,3l-2-5.1c4.3-2.1,8.7-3.7,14.3-3.7
							c5.5,0,9.7,1.6,12.7,4.5c2.8,2.8,4.3,7,4.3,12.3v29.1h-6.2v-6.6C71,58.7,66.6,62,59.9,62z M61.3,56.8
							c7,0.1,12.5-4.9,12.5-11.5v-5.7c-2.9-1-6.5-1.8-11-1.8c-7.2,0-11.2,3.7-11.2,9.5v0.3C51.6,53.3,55.9,56.8,61.3,56.8z
							 M90.4,61.1h6.3V39.5c0-11.7,6.8-17.6,15.2-17.6h0.3v-6.8c-7.4-0.3-12.9,4.3-15.6,10.6v-10h-6.3V61.1z M119.7,61.1h6.3V-1.7
							h-6.3V61.1z M155.3,62c-11,0-20.1-8.9-20.1-23.2v-0.4c0-13.8,8.1-23.5,18.7-23.5c11.4,0,18.2,9.7,18.2,23.4
							c0,0.6,0,1.8-0.1,2.6h-30.4c0.7,10,6.9,15.6,14,15.6c5,0,8.6-2.1,11.7-5.2l3.6,4C166.8,59.4,162.1,62,155.3,62z M141.6,36
							h24.3c-0.4-8.6-4.5-15.7-11.9-15.7C147.3,20.4,142.2,26.6,141.6,36z M193.7,61.8c2.6,0,4.8-0.6,6.8-1.6v-5.4
							c-1.8,0.8-3.6,1.2-5.3,1.2c-3.9,0-6.5-1.7-6.5-6.5V21.3h11.8v-5.6h-11.8V2.5h-6.3v13.2h-5.5v5.6h5.5v29.2
							C182.4,58.7,187.2,61.8,193.7,61.8z M225.4,62c-11.7,0-20.1-10-20.1-23.2v-0.6c0-13.2,8.5-23.3,20.2-23.3
							c11.7,0,20.1,10,20.1,23.2v0.5C245.6,51.9,237,62,225.4,62z M225.5,56.4c8,0,13.7-7.7,13.7-17.7v-0.4
							c0-10.2-6.1-17.7-13.8-17.7c-8,0-13.7,7.6-13.7,17.7v0.4C211.7,48.8,217.7,56.4,225.5,56.4z M254.3,61.1h6.3V33.5
							c0-7.7,4.9-13,11.5-13s10.4,4.5,10.4,12.6v27.9h6.3V31.4c0-10.2-5.6-16.5-14.8-16.5c-6.8,0-10.9,3.7-13.4,8.3v-7.4h-6.3V61.1z
							"/>
						<g id="Group-3" transform="translate(297.000000, 0.000000)">
							<path id="_x33_60" class="st4" d="M13,61c9.9,0,18.5-7.3,18.5-18.4v-0.4c0-11.1-8.9-16.3-19.1-17.2L30.8,0.6v-3.1H-2.9v4.3
								h27.8L6.6,26.4l0.8,2.6h1.8c10.1,0,17.8,4.5,17.8,13.5v0.3c0,8.6-6.2,14.2-13.9,14.2c-6.7,0-11.4-2.9-15.3-7.5l-3.1,3.1
								C-1.1,57.5,4.9,61,13,61z M55.5,61.1c-5.1,0-9.7-1.9-12.8-5.1c-4.6-4.6-7.2-11-7.2-24.1v-0.8c0-20.2,8.7-33.5,22.1-33.5
								c5.7,0,9.9,2,14.3,5.5l-2.5,3.4c-3.5-3-7.3-4.9-12.1-4.9c-10.9,0-17.6,12.3-17.6,30.5v0.2c3.3-6.4,9-10.2,16.3-10.2
								c9.8,0,18.4,7,18.4,18.6v0.2C74.4,52.6,66.1,61.1,55.5,61.1z M55.8,57.1c8.5,0,14.1-7.3,14.1-16.1v-0.2
								c0-9.1-6-14.9-14.2-14.9c-8.3,0-14.6,6.5-14.6,14.9v0.3C41.1,50.1,47,57.1,55.8,57.1z"/>
							<path class="st4" d="M109.3,53.1c-2.6,2.6-5.8,4-9.4,4c-10.5,0-17.2-12.1-17.2-27.6v-0.5c0-15.6,6.7-27.5,17.2-27.5
								c10.4,0,17.2,12.1,17.2,27.6v0.5c0,1.2,0,2.3-0.1,3.4h4.5c0.1-1.2,0.1-2.4,0.1-3.6v-0.5c0-18.3-8.3-31.4-21.6-31.4
								c-13.3,0-21.7,13.3-21.7,31.6v0.5c0,18.3,8.3,31.4,21.6,31.4c6.3,0,11.4-2.9,15.2-8H109.3z"/>
						</g>
						<defs>
							<filter id="Adobe_OpacityMaskFilter" filterUnits="userSpaceOnUse" x="406.2" y="33.1" width="21" height="20">
								<feColorMatrix  type="matrix" values="1 0 0 0 0  0 1 0 0 0  0 0 1 0 0  0 0 0 1 0"/>
							</filter>
						</defs>
						<mask maskUnits="userSpaceOnUse" x="406.2" y="33.1" width="21" height="20" id="mask-2_2_">
							<g class="st6">
								<path id="path-1_2_" class="st0" d="M396.8,61.1c-13.4,0-21.6-13.1-21.6-31.4v-0.5c0-18.3,8.4-31.6,21.7-31.6
									c13.4,0,21.6,13.1,21.6,31.4v0.5C418.5,47.8,410.1,61.1,396.8,61.1z M396.9,57.1c10.5,0,17.2-12,17.2-27.5v-0.5
									c0-15.6-6.9-27.6-17.2-27.6c-10.5,0-17.2,11.9-17.2,27.5v0.5C379.6,45,386.4,57.1,396.9,57.1z"/>
							</g>
						</mask>
						
							<linearGradient id="Rectangle_1_" gradientUnits="userSpaceOnUse" x1="-135.6211" y1="412.6299" x2="-136.0515" y2="411.9067" gradientTransform="matrix(21 0 0 -20 3267 8292)">
							<stop  offset="0" style="stop-color:#CF112D;stop-opacity:0"/>
							<stop  offset="0.4519" style="stop-color:#CF112D;stop-opacity:0.8"/>
							<stop  offset="0.6996" style="stop-color:#CF112D;stop-opacity:0.8965"/>
							<stop  offset="1" style="stop-color:#CF112D"/>
						</linearGradient>
						<rect id="Rectangle" x="406.2" y="33.1" class="st7" width="21" height="20"/>
					</g>
				</g>
			</g>
			<path id="Triangle-3" class="st4" d="M509.1,52.5c0.4,0.4,1,0.4,1.3,0c1.3-1.5,2.7-3,4-4.5c0.9-1,1.8-2,2.7-3
				c0.2-0.1,0.3-0.3,0.2-0.5c-0.1-0.1-0.2-0.2-0.5-0.2h-14.1c-0.6,0-0.7,0.3-0.3,0.7L509.1,52.5z"/>
		</g>
	</g>
</g>
<line class="st8" x1="0" y1="1.3" x2="509.4" y2="0.3"/>
<path class="st0" d="M100,136.7"/>
<path class="st0" d="M96,5.3"/>
<path class="st4" d="M510.3,48"/>
</svg>
